<?xml version="1.0" encoding="UTF-8"?>
<!DOCTYPE svg PUBLIC "-//W3C//DTD SVG 1.1//EN" "http://www.w3.org/Graphics/SVG/1.1/DTD/svg11.dtd">
<!-- Creator: CorelDRAW 2021 (64-Bit) -->
<svg xmlns="http://www.w3.org/2000/svg" xml:space="preserve" width="508mm" height="330.2mm" version="1.1" style="shape-rendering:geometricPrecision; text-rendering:geometricPrecision; image-rendering:optimizeQuality; fill-rule:evenodd; clip-rule:evenodd"
viewBox="0 0 50800 33020"
 xmlns:xlink="http://www.w3.org/1999/xlink"
 xmlns:xodm="http://www.corel.com/coreldraw/odm/2003">
 <defs>
  <style type="text/css">
   <![CDATA[
    .fil1 {fill:none}
    .fil0 {fill:#FEFEFE}
   ]]>
  </style>
      <mask id="id0">
  <linearGradient id="id1" gradientUnits="userSpaceOnUse" x1="82358.62" y1="65304.15" x2="83650.13" y2="118257.61">
   <stop offset="0" style="stop-opacity:1; stop-color:white"/>
   <stop offset="1" style="stop-opacity:0; stop-color:white"/>
  </linearGradient>
       <rect style="fill:url(#id1)" x="4606.72" y="1905.87" width="41355.66" height="18900.31"/>
      </mask>
      <mask id="id2">
  <linearGradient id="id3" gradientUnits="userSpaceOnUse" x1="82358.62" y1="65304.15" x2="83650.13" y2="118257.61">
   <stop offset="0" style="stop-opacity:1; stop-color:white"/>
   <stop offset="1" style="stop-opacity:0; stop-color:white"/>
  </linearGradient>
       <rect style="fill:url(#id3)" x="46398.17" y="9605.97" width="1765.37" height="1765.37"/>
      </mask>
      <mask id="id4">
  <linearGradient id="id5" gradientUnits="userSpaceOnUse" x1="82358.62" y1="65304.15" x2="83650.13" y2="118257.61">
   <stop offset="0" style="stop-opacity:1; stop-color:white"/>
   <stop offset="1" style="stop-opacity:0; stop-color:white"/>
  </linearGradient>
       <rect style="fill:url(#id5)" x="4606.72" y="23161.23" width="41274.02" height="2260.11"/>
      </mask>
      <mask id="id6">
  <linearGradient id="id7" gradientUnits="userSpaceOnUse" x1="87072.2" y1="69672.64" x2="88470.58" y2="127008.28">
   <stop offset="0" style="stop-opacity:1; stop-color:white"/>
   <stop offset="1" style="stop-opacity:0; stop-color:white"/>
  </linearGradient>
       <rect style="fill:url(#id7)" x="2592.16" y="29194.46" width="1532.55" height="1894.61"/>
      </mask>
      <mask id="id8">
  <linearGradient id="id9" gradientUnits="userSpaceOnUse" x1="87072.2" y1="69672.64" x2="88470.58" y2="127008.28">
   <stop offset="0" style="stop-opacity:1; stop-color:white"/>
   <stop offset="1" style="stop-opacity:0; stop-color:white"/>
  </linearGradient>
       <rect style="fill:url(#id9)" x="5468.38" y="29194.35" width="1242.7" height="1894.83"/>
      </mask>
      <mask id="id10">
  <linearGradient id="id11" gradientUnits="userSpaceOnUse" x1="87072.2" y1="69672.64" x2="88470.58" y2="127008.28">
   <stop offset="0" style="stop-opacity:1; stop-color:white"/>
   <stop offset="1" style="stop-opacity:0; stop-color:white"/>
  </linearGradient>
       <rect style="fill:url(#id11)" x="7979.56" y="29172.11" width="1758.34" height="1941.91"/>
      </mask>
      <mask id="id12">
  <linearGradient id="id13" gradientUnits="userSpaceOnUse" x1="87072.2" y1="69672.64" x2="88470.58" y2="127008.28">
   <stop offset="0" style="stop-opacity:1; stop-color:white"/>
   <stop offset="1" style="stop-opacity:0; stop-color:white"/>
  </linearGradient>
       <rect style="fill:url(#id13)" x="10947.69" y="29169.4" width="1953.31" height="1944.62"/>
      </mask>
      <mask id="id14">
  <linearGradient id="id15" gradientUnits="userSpaceOnUse" x1="87072.2" y1="69672.64" x2="88470.58" y2="127008.28">
   <stop offset="0" style="stop-opacity:1; stop-color:white"/>
   <stop offset="1" style="stop-opacity:0; stop-color:white"/>
  </linearGradient>
       <rect style="fill:url(#id15)" x="14247.49" y="29194.46" width="1312.58" height="1894.61"/>
      </mask>
      <mask id="id16">
  <linearGradient id="id17" gradientUnits="userSpaceOnUse" x1="87072.2" y1="69672.64" x2="88470.58" y2="127008.28">
   <stop offset="0" style="stop-opacity:1; stop-color:white"/>
   <stop offset="1" style="stop-opacity:0; stop-color:white"/>
  </linearGradient>
       <rect style="fill:url(#id17)" x="16747.55" y="29174.93" width="1674.58" height="1914.02"/>
      </mask>
      <mask id="id18">
  <linearGradient id="id19" gradientUnits="userSpaceOnUse" x1="87072.2" y1="69672.64" x2="88470.58" y2="127008.28">
   <stop offset="0" style="stop-opacity:1; stop-color:white"/>
   <stop offset="1" style="stop-opacity:0; stop-color:white"/>
  </linearGradient>
       <rect style="fill:url(#id19)" x="19331.16" y="29194.35" width="1418.24" height="1894.6"/>
      </mask>
      <mask id="id20">
  <linearGradient id="id21" gradientUnits="userSpaceOnUse" x1="87072.2" y1="69672.64" x2="88470.58" y2="127008.28">
   <stop offset="0" style="stop-opacity:1; stop-color:white"/>
   <stop offset="1" style="stop-opacity:0; stop-color:white"/>
  </linearGradient>
       <rect style="fill:url(#id21)" x="22054.13" y="29194.29" width="292.56" height="1894.78"/>
      </mask>
      <mask id="id22">
  <linearGradient id="id23" gradientUnits="userSpaceOnUse" x1="87072.2" y1="69672.64" x2="88470.58" y2="127008.28">
   <stop offset="0" style="stop-opacity:1; stop-color:white"/>
   <stop offset="1" style="stop-opacity:0; stop-color:white"/>
  </linearGradient>
       <rect style="fill:url(#id23)" x="23639.96" y="29194.35" width="1674.63" height="1914.25"/>
      </mask>
      <mask id="id24">
  <linearGradient id="id25" gradientUnits="userSpaceOnUse" x1="87072.2" y1="69672.64" x2="88470.58" y2="127008.28">
   <stop offset="0" style="stop-opacity:1; stop-color:white"/>
   <stop offset="1" style="stop-opacity:0; stop-color:white"/>
  </linearGradient>
       <rect style="fill:url(#id25)" x="26599.79" y="29194.35" width="1242.69" height="1894.83"/>
      </mask>
      <mask id="id26">
  <linearGradient id="id27" gradientUnits="userSpaceOnUse" x1="87072.2" y1="69672.64" x2="88470.58" y2="127008.28">
   <stop offset="0" style="stop-opacity:1; stop-color:white"/>
   <stop offset="1" style="stop-opacity:0; stop-color:white"/>
  </linearGradient>
       <rect style="fill:url(#id27)" x="30677.38" y="29194.35" width="1674.58" height="1914.25"/>
      </mask>
      <mask id="id28">
  <linearGradient id="id29" gradientUnits="userSpaceOnUse" x1="87072.2" y1="69672.64" x2="88470.58" y2="127008.28">
   <stop offset="0" style="stop-opacity:1; stop-color:white"/>
   <stop offset="1" style="stop-opacity:0; stop-color:white"/>
  </linearGradient>
       <rect style="fill:url(#id29)" x="33637.21" y="29194.35" width="1242.63" height="1894.83"/>
      </mask>
      <mask id="id30">
  <linearGradient id="id31" gradientUnits="userSpaceOnUse" x1="87072.2" y1="69672.64" x2="88470.58" y2="127008.28">
   <stop offset="0" style="stop-opacity:1; stop-color:white"/>
   <stop offset="1" style="stop-opacity:0; stop-color:white"/>
  </linearGradient>
       <rect style="fill:url(#id31)" x="36248.47" y="29174.71" width="1512.96" height="1933.89"/>
      </mask>
      <mask id="id32">
  <linearGradient id="id33" gradientUnits="userSpaceOnUse" x1="87072.2" y1="69672.64" x2="88470.58" y2="127008.28">
   <stop offset="0" style="stop-opacity:1; stop-color:white"/>
   <stop offset="1" style="stop-opacity:0; stop-color:white"/>
  </linearGradient>
       <rect style="fill:url(#id33)" x="39194.47" y="29194.35" width="1242.63" height="1894.83"/>
      </mask>
      <mask id="id34">
  <linearGradient id="id35" gradientUnits="userSpaceOnUse" x1="87072.2" y1="69672.64" x2="88470.58" y2="127008.28">
   <stop offset="0" style="stop-opacity:1; stop-color:white"/>
   <stop offset="1" style="stop-opacity:0; stop-color:white"/>
  </linearGradient>
       <rect style="fill:url(#id35)" x="41805.78" y="29194.35" width="1242.64" height="1894.83"/>
      </mask>
      <mask id="id36">
  <linearGradient id="id37" gradientUnits="userSpaceOnUse" x1="87072.2" y1="69672.64" x2="88470.58" y2="127008.28">
   <stop offset="0" style="stop-opacity:1; stop-color:white"/>
   <stop offset="1" style="stop-opacity:0; stop-color:white"/>
  </linearGradient>
       <rect style="fill:url(#id37)" x="44417.27" y="29194.46" width="1312.24" height="1894.61"/>
      </mask>
      <mask id="id38">
  <linearGradient id="id39" gradientUnits="userSpaceOnUse" x1="87072.2" y1="69672.64" x2="88470.58" y2="127008.28">
   <stop offset="0" style="stop-opacity:1; stop-color:white"/>
   <stop offset="1" style="stop-opacity:0; stop-color:white"/>
  </linearGradient>
       <rect style="fill:url(#id39)" x="46909.15" y="29172.17" width="1298.68" height="1941.96"/>
      </mask>
 </defs>
 <g id="Layer_x0020_1">
  <metadata id="CorelCorpID_0Corel-Layer"/>
  <g id="_3076861923904">
   <g>
    <g>
     <path class="fil0" style="mask:url(#id0)" d="M28992.07 8336.31c0,-4.15 -0.25,-8.42 -1.1,-12.82 -0.25,-0.97 -43.69,-222.47 -63.95,-466.05m65.05 478.87l0.36 0m-72.24 -810.81c4.15,-58.94 12.08,-113 25.01,-158.4 20.63,-72.25 63.22,-135.58 118.01,-182.45l112.4 -61.62m270.43 178.05c22.58,60.28 37.95,137.65 46.37,225.76m-7.93 467.64l-9.52 77.62c-6.83,51.38 -15.13,102.14 -24.89,151.57m-206.49 524.51c-5.49,5.73 -10.86,10.98 -16.47,15.74 -0.25,0.12 0.48,0.37 1.83,0.73m0 0c-236.51,-61.99 -236.51,-427.37 -236.51,-428.34m15454.02 9847.81c-35.76,143.76 -91.77,279.22 -168.53,407.72 -40.64,66.63 -85.06,129.24 -133.39,188.18 1.71,653.87 -0.61,1271.37 -4.14,1777.21 105.19,-45.03 207.58,-96.29 307.16,-153.28 3.54,-643.86 4.88,-1425.74 -1.1,-2219.83zm-15621.21 -12637.19l30.76 0c75.41,-51.99 152.91,-90.79 231.38,-117.64 128.87,-43.93 260.91,-54.06 387.22,-35.15 134.6,20.38 267.86,72.98 390.02,152.79l428.71 0 0 -25.99c-51.86,-46.01 -106.78,-88.11 -164.26,-125.7 -170.72,-111.78 -365.25,-187.08 -570.03,-217.71 -26.48,-4.03 -53.08,-7.2 -79.69,-9.64 241.76,-61.26 514.63,-42.96 813.98,111.78l0 -679.61c-39.41,-33.32 -80.05,-66.27 -122.15,-98.73 -506.33,-390.76 -957.38,-504.25 -1345.94,-461.66l0 273.72c303.87,-51.98 653.87,18.55 1041.82,310.22 -388.93,-174.03 -737.58,-185.37 -1041.82,-104.1l0 291.91c58.95,-22.33 119.96,-40.27 183.18,-52.96 187.45,-7.2 387.1,18.67 600.05,84.57 7.44,2.32 14.89,4.15 22.58,5.73 10,2.81 26.84,7.69 49.66,15.75 -327.42,6.34 -613.71,130.09 -855.47,302.52l0 379.9zm1468.09 -1172.76l0 -324.01c-245.65,-151.69 -426.88,-208.68 -477.4,-222.71l-2.56 -0.74c-297.53,-92.01 -571.13,-126.79 -823.62,-115.69 255.66,-51.25 535.98,-39.41 843.87,55.77 7.57,2.32 15.02,4.28 22.7,5.74 42.23,11.72 208.81,63.7 437.01,211.85l0 -383.07 -182.81 0 7.57 5.62 5 3.9 -24.89 -9.52 -1272.96 0 0 366.6c251.27,-47.35 525.98,-34.17 827.41,58.94 7.44,2.32 14.88,4.27 22.57,5.86 52.72,14.52 299.72,91.89 618.11,341.46zm-20675.81 11308.21c21.97,15.13 46.01,32.22 71.39,51.01 -24.77,-190.37 -54.06,-340.48 -88.72,-436.64 -81.64,-226.74 -204.17,-513.89 -337.55,-826.55 -212.71,-498.88 -453.36,-1062.93 -603.71,-1563.65 -129.12,-95.8 -258.23,-191.84 -386.74,-288.37 141.32,546.36 418.1,1195.34 659.24,1760.61 131.92,309.24 253.23,593.34 336.58,825.46 21.6,59.79 41,140.21 58.7,238.45 98.11,80.43 195.13,160.48 290.81,239.68zm85.42 61.51c84.09,62.6 183.42,142.9 285.32,232.6 126.07,-376.73 339.63,-900.99 561.49,-1429.65 25.75,-26.97 50.89,-58.21 75.42,-93.12 -95.55,-87.5 -195.38,-174.87 -298.5,-262.49 -38.56,91.03 -77.13,182.56 -115.45,273.97 -53.08,56.01 -106.17,87.86 -158.28,90.3 -157.55,-50.52 -326.93,-240.9 -510.6,-529.51 -131.31,-206.36 -250.53,-455.32 -365.86,-735.27 -138.63,-103.36 -278.61,-207.09 -419.19,-311.19 143.15,370.99 289.34,697.56 455.07,958.1 217.96,342.56 508.4,587.61 928.08,697.07 -168.28,404.06 -326.08,795.31 -437.5,1109.19zm427.5 362.57c99.58,94.94 195.99,195.13 276.65,292.4l9.28 -35.64c87.74,-339.26 323.15,-931.01 579.91,-1546.56 -82.62,-87.38 -170.36,-174.88 -262.74,-262.26 -246.15,585.65 -482.9,1168.01 -603.1,1552.06zm493.88 1421.96l0 556.24c-1.35,80.3 -10.26,158.89 -26.61,235.04 -19.89,641.54 -38.32,1334.46 -51.62,1854.21 119.47,-58.94 232.84,-122.28 340.11,-189.88 30.64,-1174.23 80.3,-2910.19 116.06,-3277.4 29.53,-304.24 131.92,-834.85 339.02,-1482.86 -77.86,-105.07 -164.87,-210.02 -259.7,-315.1l-15.86 46.5c-245.66,727.33 -363.79,1324.7 -395.76,1654.2 -13.92,141.93 -29.66,484.48 -45.64,919.05zm-805.69 1741.09c-89.08,51.13 -184.39,97.99 -285.93,140.46 -15.49,6.47 -31.24,12.81 -46.98,19.04 -0.85,421.27 -4.27,803.97 -7.93,1107.96 113.98,-23.31 225.4,-50.28 334.74,-81.15 3.42,-336.33 6.35,-745.76 6.1,-1186.31zm-465.56 207.34c-107.27,35.14 -218.94,63.7 -333.16,85.91 -1.47,403.69 -5,765.04 -8.67,1046.82 113.62,-12.57 225.04,-28.31 334.38,-47.47 3.54,-302.28 6.71,-676.2 7.45,-1085.26zm-930.28 142.41c-111.67,0 -223.45,-5.73 -333.77,-17.21 -7.08,463.13 -19.28,841.69 -25.87,1027.79 109.83,7.45 221.74,11.96 335.47,13.43 7.33,-217.23 18.07,-586.75 24.17,-1024.01zm-765.78 -94.21c-115.2,-29.65 -226.5,-66.27 -332.67,-109.95 -0.73,422 -4.27,805.8 -7.93,1111.38 108.98,23.43 220.03,43.32 333.16,59.79 3.41,-296.05 6.71,-661.31 7.44,-1061.22zm-462.51 -167.43c-121.31,-57.73 -232.73,-122.28 -334.38,-193.8 13.18,501.57 25.38,927.23 35.02,1250.75 108.13,34.41 218.69,65.04 331.7,91.53 -9.04,-301.68 -20.26,-691.34 -32.34,-1148.48zm-665.47 -490.1l-7.56 -8.79c-197.58,-229.55 -296.43,-488.87 -301.07,-774.07l0 -0.85c-25.87,657.65 -46.86,1438.8 -60.53,2018.23 105.32,57.47 215.76,111.17 331.33,161.21 9.28,-396.99 22.21,-900.02 37.83,-1395.73zm-308.63 -2487.21l0 -362.69 -260.91 20.99c-32.46,114.71 -64.43,222.22 -94.7,323.27 -82.37,276.53 -150.47,504.5 -172.68,695.73 -47.59,407.84 -88.35,1651.51 -114.71,2646.83 102.02,87.26 211.73,169.27 329.01,246.15 25.87,-1017.17 68.34,-2369.82 118.13,-2795.97 22.45,-192.93 90.06,-419.56 171.95,-694.14l23.91 -80.17zm-310.58 -337.68l-224.05 18.06c-64.68,266.77 -134.49,500.72 -196.24,707.57 -82.49,276.53 -150.47,504.49 -172.68,695.73 -35.88,307.16 -67.85,1088.56 -92.62,1880.81 8.78,10.86 17.81,21.73 26.84,32.34 69.81,82.62 145.23,161.82 225.89,237.36 -12.57,-1059.64 -0.97,-2184.93 135.95,-2644.27 76.15,-255.06 188.79,-563.69 296.91,-927.6zm-334.01 26.85l-357.69 28.68c-106.9,517.43 -231.25,958.96 -343.16,1279.18 109.71,-333.4 227.47,-772.73 327.18,-1277.72l-357.57 28.8c-29.65,142.66 -60.65,279.47 -92.26,409.56l0 1187.41c9.28,-28.32 18.67,-56.02 28.68,-82.01 -10.01,32.34 -19.4,65.9 -28.68,100.68l0 340.6c5.49,275.43 62.24,534.76 171.34,778.47 45.03,-488.76 116.79,-946.39 230.53,-1243.92 133.14,-348.41 292.76,-894.15 421.63,-1549.73zm5312.35 3913.2c124.47,-78.46 240.77,-162.91 348.78,-252.85 58.08,-1125.3 209.53,-2716.52 602,-3847.06 -66.02,-125.09 -143.88,-246.4 -232.48,-361.23 -514.62,1250.99 -671.2,3256.65 -718.3,4461.14zm494 -382.09c75.29,-71.39 145.71,-145.83 211.36,-223.45 62.61,-74.07 119.36,-149.74 170,-227.11 62.85,-593.46 164.63,-1271.24 328.77,-1956.84l0 -388.2c-3.54,-180.25 -36.74,-366.72 -96.41,-551.24 -380.39,1177.65 -544.04,2426.57 -613.72,3346.84zm-1083.92 -5433.41c-40.52,-34.04 -81.4,-68.09 -122.77,-102.14 -11.72,3.54 -23.68,5.61 -35.39,6.1 -119.23,-38.2 -245.05,-156.45 -378.8,-336.82 -175,-135.95 -355.62,-272.26 -538.79,-409.06 25.38,44.18 50.89,86.89 77.13,128.01 228.32,358.91 536.34,610.79 989.1,711.84l0.12 0 9.4 2.07zm-2207.88 -1686.53c-122.16,-92.87 -243.34,-186.11 -362.45,-279.71 75.67,605.18 435.06,1447.47 738.08,2157.84 88.23,207.1 171.82,402.96 242.48,579.43 144.74,118.01 288.5,234.92 430.18,350.73l-3.91 -11.96c-81.52,-226.74 -204.16,-514.14 -337.55,-826.67 -272.87,-639.71 -591.38,-1386.57 -706.83,-1969.66zm-456.41 -354.15c-119.35,-94.7 -236.39,-189.77 -350.49,-285.56 51.62,560.99 136.07,1343.86 233.58,2110.36 118.86,101.17 238.7,201.97 359.03,302.29 -97.88,-747.23 -184.89,-1531.56 -242.12,-2127.09zm-530.74 -439.09c-144.61,-125.45 -283.49,-251.88 -415.04,-379.16 26.85,269.58 53.69,532.93 79.93,785.54 -1.83,395.16 -1.95,796.17 -0.73,1198.27 145.95,133.27 295.2,265.92 446.77,398.21 -1.71,-286.05 -18.06,-592.73 -52.96,-922.11 -19.77,-185.61 -40.27,-380.5 -61.26,-582.35 0.73,-167.19 1.83,-333.53 3.29,-498.4zm-730.99 -725.62c-451.41,-614.7 -557.1,-1482.01 -8.67,-2080.35 5.37,-344.02 16.6,-684.5 37.1,-1003.38 14.04,242.24 31.24,500.11 51.13,768.46l10.13 136.81c89.09,-80.91 191.48,-155.84 308.63,-223.09 -43.08,-609.08 -71.63,-1156.04 -75.78,-1574.38 -210.88,101.17 -407.36,213.07 -588.21,334.38l-2.81 27.21 -0.61 -24.9c-112.76,75.79 -219.54,155.23 -320.22,237.97 15.37,360.26 41,771.76 73.34,1210.97 49.42,670.1 114.71,1403.78 183.3,2117.69 3.9,369.52 4.39,676.2 -6.71,876.83 -81.77,-830.09 -161.95,-1706.56 -219.91,-2492.83 -46.99,-637.27 -79.81,-1216.09 -87.62,-1664.08 -114.96,98.23 -221.62,200.62 -319.74,306.92 15.01,372.21 41.49,801.77 75.42,1261.85 32.7,441.77 72.12,911.12 114.83,1384.37l-177.44 -508.28c-15.86,-223.08 -42.95,-1159.22 -66.99,-2078.15 -119.48,135.46 -225.77,276.54 -317.78,422.49 20.01,730.63 40.27,1381.33 52.96,1560.11 28.43,399.18 506.57,1662.25 644.35,2016.52l32.95 324.49c115.32,126.31 236.14,252.5 361.35,378.68l-1.1 -9.88 3.29 12.2c147.79,148.76 301.68,297.4 460.2,445.55 -6.22,-76.27 -13.55,-153.88 -21.97,-232.84 -60.53,-568.81 -128.26,-1225.24 -193.06,-1898.64l-0.36 -32.7zm481.43 -2446.21c104.46,-53.58 219.18,-101.78 345.24,-143.15 41.74,-688.4 98.73,-1254.41 175,-1638.58 -123.5,28.68 -247,67.49 -368.92,115.57 -65.77,419.56 -115.2,991.42 -151.32,1666.16zm435.55 -171.22c85.66,-24.89 175.97,-46.98 271.28,-66.02 33.44,-586.99 101.9,-1157.27 232.72,-1601.36 -103.12,3.67 -207.46,15.38 -312.16,34.66 -94.46,473.99 -154.26,1052.2 -191.84,1632.72zm450.8 -96.89c107.02,-15.87 219.66,-28.2 338.04,-36.49 24.65,-573.69 73.1,-1102.11 163.4,-1493.6 -111.54,-25.38 -226.74,-38.93 -344.38,-41.25 -89.33,417.12 -135.1,974.21 -157.06,1571.34zm467.52 -35.03c433.47,31.85 145.22,262.38 318.63,594.32 13.67,-737.1 54.92,-1451.26 158.28,-1966 -35.39,-1.71 -71.14,-2.69 -107.76,-3.05 -72.36,-36.74 -147.54,-67 -224.79,-90.8 -79.81,397.84 -122.64,912.95 -144.36,1465.53zm333.28 620.55c61.14,103.98 169.14,217.23 358.54,336.94 24.16,-384.04 58.33,-740.51 98.11,-1029.61 16.24,-65.05 32.83,-117.64 49.55,-156.09 124.97,-287.02 195.62,-661.8 234.19,-947.85 7.56,-32.58 14.76,-65.17 21.48,-97.51 -109.96,-29.89 -224.06,-54.67 -344.63,-72.12 -2.93,24.41 -6.23,49.79 -9.64,75.79 -37.47,160.11 -84.94,319.61 -145.23,458 -48.69,111.9 -96.41,341.82 -138.14,644.71 -45.4,181.96 -88.36,457.76 -124.23,787.74zm574.18 459.59c92.25,50.65 203.67,111.91 331.44,159.14 19.29,-897.7 159.26,-1467.61 299.72,-2039.35l29.29 -119.47c14.65,-59.43 27.34,-118.13 38.69,-175.85 -108.12,-43.94 -216.37,-85.43 -327.3,-122.41 -12.33,65.54 -26.73,132.41 -43.2,200.14l-29.29 119.6c-137.54,560.02 -274.7,1118.34 -299.35,1978.2zm787.98 1301.76c77.01,128.14 165.85,206.48 255.18,199.53l88.96 -36.37c161.33,-123.38 310.95,-571.13 377.22,-1558.03l0 911.12c73.09,-380.88 70.78,-980.56 -147.79,-1920.12l37.1 10.62c-21.24,-304.6 -35.27,-572.1 -44.42,-805.92 -62.85,-29.41 -127.16,-57.73 -193.19,-84.82 -47.47,-19.52 -94.33,-39.17 -140.7,-58.7 8.91,238.7 23.06,514.14 44.78,830.46l-39.54 -11.72c-2.44,3.3 -839.11,1138.6 -237.6,2523.95zm721.36 655.33l0 43.57 346.58 -27.83c94.09,-528.66 144.12,-1144.08 166.82,-1759.27 -8.3,676.94 -17.33,1267.59 -24.89,1492.38 -2.2,64.31 -9.04,151.81 -19.9,257.13l386.74 -31.24c5.49,-68.34 10.86,-137.78 16.1,-208.44 21.12,-172.43 33.93,-312.78 36.98,-405.16 1.83,-53.2 3.66,-126.79 5.61,-216.85 43.57,-690.97 79.21,-1432.46 107.15,-2101.22 -16.72,-21.36 -34.05,-42.59 -51.99,-63.82 -127.64,-152.06 -273.36,-291.55 -436.88,-418.59l-4.52 442.87c-1.83,-155.96 -4.64,-307.53 -8.3,-452.87 -104.83,-80.67 -216.61,-155.97 -335.47,-226.5 31.6,1091.24 23.06,2585.08 -184.03,3675.84zm1033.76 -39.54l341.82 -27.58c34.66,-459.59 65.54,-965.79 92.39,-1473.83l0 -187.08c-7.08,-356.46 -100.07,-685.72 -281.05,-989.1 -38.08,881.47 -89.21,1862.51 -153.16,2677.59zm-6752.25 -2589.36c-160.23,308.14 -261.03,632.76 -299.11,963.84 6.47,176.1 12.21,307.66 16.84,373.8 21.85,305.21 320.1,1086.36 523.9,1590.37 9.4,13.3 18.55,26.61 28.32,39.79 153.64,209.65 326.81,419.92 515.23,630.19 -7.08,-40.52 -14.64,-81.03 -22.45,-121.43l-0.61 -1.46c-1.95,-4.52 -679.38,-1579.39 -712.45,-2041.91 -12.2,-170.36 -30.87,-756.5 -49.67,-1433.19zm-289.34 1640.9c44.54,308.75 144.24,616.77 301.91,916.12 -124.35,-328.15 -245.17,-674.61 -301.91,-916.12zm5628.9 -1677.14c-176.46,408.09 -353.78,1081.85 -103.6,1855.43 149.49,-245.78 294.22,-768.82 103.6,-1855.43zm18579.85 9144.15c157.06,-126.06 303.63,-287.76 449.09,-493.15 215.64,-304.23 426.89,-702.31 663.51,-1219.75 178.91,-391.12 212.96,-591.5 266.65,-908.31 22.46,-132.29 48.33,-284.22 88.84,-477.28l0 356.22 0 1070.74 0 167.07 0 684.75 0 55.28c-35.02,172.43 -76.88,341.82 -125.2,506.57l64.8 -104.46 60.4 -97.51 0 624.34c-271.28,449.33 -483.01,839.24 -475.2,1026.44 5.37,130.33 -6.84,310.46 -21.6,528.29 -22.7,334.75 -51.63,760.29 -31,1219.26l-360.25 0c-20.14,-463 8.79,-890.74 31.73,-1228.04 13.18,-194.16 24.16,-357.93 22.45,-477.41 -81.27,108.86 -166.33,208.44 -254.69,297.16l-12.44 189.28c-22.7,334.5 -51.63,760.16 -31,1219.01l-336.09 0 0 -1108.33 0 -8.17 0 -338.53 23.43 -21.48c5.74,-105.07 8.67,-195.01 5.74,-265.79 -12.2,-290.81 373.55,-912.59 774.19,-1558.52 111.18,-179.03 223.33,-360.01 328.16,-535.25 7.81,-42.59 15.25,-85.18 22.09,-128.02 -126.31,239.44 -249.32,445.07 -374.53,621.65 -226.5,319.86 -462.27,546.85 -738.07,707.44l-9.4 5.74 -31.61 18.79 0 -328.03zm761.38 336.7c-131.31,223.57 -241.02,426.27 -306.67,587.97l5.98 -9.52c109.46,-175.12 210.51,-369.65 300.69,-578.45zm531.59 -6384.68c-388.32,1162.76 -730.75,2062.17 -747.59,2106.46 -0.85,2.69 -175.36,509.99 -545.38,963.6l0 -578.82c127.41,-242.12 192.45,-430.54 192.94,-432.13l0.12 0 0.49 -1.7c0.61,-1.71 65.9,-172.68 171.71,-461.54 -100.56,150.59 -221.99,305.57 -365.26,445.06l0 -467.03c145.59,-213.69 250.79,-428.96 314.24,-574.79 -96.53,98.97 -199.89,177.2 -314.24,234.07l0 -337.56c156.21,-154.25 297.04,-383.8 442.63,-685.35 -78.72,62.73 -160.24,98.73 -247.98,116.3 -47.47,9.4 -111.79,37.22 -175.73,64.68l-18.92 8.18 0 -263.97c26.97,-8.3 55.16,-15.5 84.57,-21.48 106.54,-21.23 216.01,-148.03 378.31,-496.56 79.69,-171.34 166.58,-390.88 265.19,-669.73 -51.99,104.83 -105.68,192.69 -159.14,257.98 -217.71,266.16 -367.2,444.94 -549.04,492.54l-19.89 4.88 0 -306.43c64.19,-67.98 146.81,-168.54 247.49,-291.55 74.93,-91.52 150.84,-233.7 220.89,-408.57 -117.65,128.74 -221.74,214.54 -339.39,245.17 -45.27,11.83 -87.98,17.57 -128.99,17.08l0 -226.38c65.17,-28.92 184.4,-173.41 356.47,-383.68 154.5,-188.79 312.9,-592.36 416.75,-1054.14 -157.67,-34.54 -264.82,-113.37 -337.31,-204.05l-0.24 0c-10.86,-1.58 -21.36,-3.66 -31.36,-6.34l-0.61 -0.25 0.61 0.25c6.22,1.58 22.21,4.27 31.24,5.86l-17.21 -22.58c-123.62,-170.73 -134.85,-373.55 -135.7,-409.43 -8.79,-45.64 -57.36,-309.24 -71.03,-575.77 -37.1,26.97 -73.95,58.82 -109.83,94.46 -34.9,34.78 -69.07,72.98 -101.78,113.86l0 -394.79 0.61 -0.49c30.76,-18.91 62.36,-35.88 94.34,-50.52 38.93,-17.82 78.71,-32.34 119.1,-43.2 5.01,-57.6 13.67,-110.81 26.85,-156.94 21.11,-73.95 59.31,-142.54 109.47,-202.33l17.08 -19.53 331.57 0 381.85 0 285.57 0 101.65 0 0 224.79 0 870.85 0 1027.18 0 133.26 0 119.96 0 478.87 0 349.63 0 186.96 0 556.48 0 95.93 0 1183.13c-67.73,223.7 -135.7,443.73 -202.94,656.68 61.63,-192.21 129.97,-388.2 202.94,-587.73l0 1148.36c-74.68,291.55 -126.79,570.03 -147.29,832.65 -73.22,932.97 -366.84,1845.19 -775.91,2499.67 -163.77,262.13 -347.56,484.84 -544.89,653.74l0 -436.4c72.25,-90.92 142.3,-190.37 209.29,-297.77 396.13,-633.49 680.6,-1520.2 751.99,-2429.73 31.85,-405.41 135.09,-844.49 280.07,-1307.74 -404.67,1275.52 -771.02,2283.42 -784.81,2321.37l0.12 0.12c-0.73,2.69 -147.17,448.73 -456.66,888.18l0 -669.49c68.71,-156.57 103.85,-262.99 104.22,-264.21l0.24 0.12 0.37 -1.46c1.95,-5.25 651.67,-1787.1 1188.14,-3656.2zm-257.13 -1989.18c41.37,-132.41 84.57,-272.63 129.48,-420.91 60.41,-198.79 109.84,-390.27 148.89,-573.56 -41.5,81.03 -89.7,147.9 -144.25,194.76l-19.28 15.5 -16.72 78.23c-4.39,69.93 -10.37,140.34 -18.06,210.88 -18.18,166.21 -45.64,333.28 -80.06,495.1zm-158.89 -1984.19c-20.62,-206.97 -66.02,-393.44 -142.66,-541.84l-20.01 15.99c-38.2,32.71 -70.54,73.47 -93.48,119.6 -10.01,19.89 -18.18,41 -24.53,62.85 -10.37,36.48 -17.57,78.46 -22.09,124.11 31.73,10.12 62.85,22.94 92.99,38.8 76.4,40.15 147.18,99.34 209.78,180.49zm-876.95 -339.62l0 -264.21 208.44 0c-38.56,38.44 -76.03,81.28 -111.91,127.16 -34.17,43.81 -66.51,89.82 -96.53,137.05zm1468.09 12408.86c-14.64,268.23 -23.79,571.37 -8.78,890.61l-360.37 0c-21.36,-468 8.05,-900.74 31.24,-1241.22 14.4,-215.03 26.48,-392.84 21.48,-514.51 -7.08,-171.7 124.59,-459.22 316.43,-799.09l0 1664.21zm-824.47 -11443.44c0,0.86 0,255.3 137.41,375.63 -3.17,-269.45 -39.78,-518.41 -121.79,-714.28 -23.67,-56.25 -51.01,-108.36 -82.37,-155.1 11.83,150.35 32.95,293.74 47.96,384.29 9.88,59.67 17.2,96.28 17.33,96.77 0.73,4.27 1.09,8.42 1.09,12.69l0.37 0zm7720.48 -540.37c-52.47,1558.64 -197.21,3080.92 -529.39,3908.44l0 -1532.65c14.89,-103.24 28.92,-209.04 42.1,-317.17 -13.79,44.79 -27.82,87.63 -42.1,128.02l0 -13.06c-4.39,-261.64 -61.51,-497.05 -174.88,-713.18 87.62,-458.24 142.17,-1071.84 121.31,-1890.21l15.86 9.15c207.83,120.33 397.23,260.79 567.1,420.66zm-2124.28 617.26c-11.35,-189.16 -18.06,-396.74 -19.77,-628.37 -1.95,-293.25 2.08,-564.29 11.11,-817.03l22.57 -0.24c106.91,0.85 211.86,6.59 314.98,16.84 -12.21,286.17 -18.06,596.15 -15.74,936.5 1.46,189.77 6.1,363.18 14.03,523.66 -100.31,-19.4 -204.53,-29.9 -313.27,-31.61l-13.91 0.25zm-53.08 -1444.42c-1.59,89.21 -3.06,178.54 -4.15,267.75 -4.76,400.76 -2.81,799.7 6.95,1178.62 -215.15,10.37 -412.72,56.14 -596.51,139.36 0.37,-103.12 1.1,-206.6 2.32,-310.21 4.88,-409.07 16.72,-820.08 33.68,-1213.89 179.64,-35.76 365.74,-56.5 557.71,-61.63zm1971.97 4714.86c181.11,-1100.4 294.35,-2233.87 304.97,-2663.8 5.01,-200.26 10.5,-601.4 15.99,-1109.19 154.86,162.43 291.3,342.44 408.82,539.4 42.1,70.54 81.15,142.66 117.03,216.25 -60.89,654.48 -179.27,1596.11 -338.04,2455.73 -32.58,176.34 -66.87,349.27 -102.63,515.48l-406.14 46.13zm683.16 -77.49c70.54,-727.7 131.07,-1776.36 181.35,-2902.75 175.12,372.82 269.45,782.13 278.73,1223.65 -33.81,617.99 -71.03,1181.19 -111.79,1639.43l-348.29 39.67zm-883.42 4589.4c-43.69,149.74 -85.18,294.84 -123.74,433.59l0 -433.59 123.74 0zm-553.8 2678.2c16.48,542.21 28.07,1125.17 36.13,1703.5 -106.91,44.06 -216.62,81.89 -329.13,113.62 -6.35,-521.71 -15.5,-1052.32 -28.19,-1557.91 119.59,-73.96 226.74,-160.48 321.19,-259.21zm-493.75 350.37c29.04,450.31 46.61,969.08 56.13,1503.6 -107.51,24.65 -217.34,43.81 -329.37,57.36 -7.32,-509.38 -21.36,-1010.34 -45.28,-1457.72 110.81,-23.19 216.74,-57.6 318.52,-103.24zm-476.68 128.62c8.79,475.45 14.28,966.04 17.33,1449.42 -65.16,4.4 -131.19,6.71 -197.82,7.2 -45.03,-0.36 -89.69,-1.58 -133.99,-3.54 -2.69,-481.55 -7.45,-972.13 -15.5,-1449.78 48.94,4.63 98.73,7.2 149.49,8.05 61.63,-0.97 121.67,-4.76 180.49,-11.35zm-421.51 -7.93c25.87,443.11 41.49,944.56 49.92,1457.84 -112.64,-7.08 -222.96,-19.4 -331.09,-37.34 -7.69,-528.05 -22.58,-1046.58 -48.32,-1505.32 105.19,39.79 214.78,67.98 329.49,84.82zm-1271.12 -9830.6c-1.22,-166.95 -2.93,-342.44 -4.52,-524.64 -4.64,-502.79 -9.76,-1056.71 -9.76,-1623.93 244.44,-139.24 506.2,-242.97 784.08,-309.48 -21.97,410.53 -24.9,975.31 -20.75,1549.24 -12.2,6.72 -24.53,13.55 -36.85,20.63 -106.66,60.89 -203.68,133.26 -291.06,215.88 -4.03,-329.01 -6.34,-665.34 -5.12,-981.41 -7.69,353.53 -12.21,691.21 -14.65,1000.45 -96.89,94.94 -181.47,202.58 -253.71,321.07 -63.22,105.81 -112.4,216.25 -147.66,332.19zm-159.99 -2060.22c-30.51,1161.42 -25.63,2196.65 -23.43,2685.04 0.36,86.64 0.73,156.45 0.73,214.29 0,235.29 43.93,963.72 113.98,1890.95l0 3549.54c-36.85,-340.48 -73.22,-699.27 -108.25,-1064.28 -187.44,-1951.96 -338.65,-4078.93 -338.65,-4512.52 0,-42.71 -0.36,-117.64 -0.73,-213.93 -2.07,-432.74 -6.1,-1295.04 14.4,-2293.91 106.91,-92.26 220.89,-177.32 341.95,-255.18zm970.18 11749.26c79.33,429.93 146.08,910.02 156.09,1373.15 1.34,61.62 2.32,123.62 2.93,185.49 -112.89,-19.4 -223.33,-44.66 -331.21,-75.66 -0.61,-81.77 -1.71,-163.53 -3.42,-245.05 -10.98,-497.91 -88.47,-1018.15 -176.22,-1474.07 77.5,68.34 162.07,129.6 253.84,183.91 32.22,18.55 64.8,36 97.99,52.23zm1057.44 -10750.03c-37.22,-519.99 -24.77,-1010.82 18.68,-1462.35 115.69,13.54 228.93,33.19 339.74,58.58 -10.37,97.26 -19.16,196.23 -26.36,297.03 12.45,-102.63 28.32,-200.26 46.26,-292.4 115.81,27.46 228.69,61.14 338.77,101.29 -85.79,417.37 -128.14,957.74 -5.74,1556.82 91.53,-257.5 165.73,-715.99 99.7,-1520.69 114.35,46 225.53,99.21 333.41,159.13 85.06,1088.93 -88.6,1540.83 -210.03,1719.12 -130.7,-181.1 -294.1,-331.69 -490.09,-443.72 -20.51,-11.84 -41.25,-23.19 -62.12,-34.05 -39.05,-188.91 -61.87,-371.97 -72.24,-547.21 1.46,170 7.93,344.02 20.13,521.22 -105.32,-49.92 -215.03,-87.38 -330.11,-112.77zm-2532.49 -592.72c-175.12,175.12 -328.15,372.08 -457.87,589.55l-21.12 36c-6.59,658.02 -4.15,1201.69 -2.68,1517.03 0.61,96.29 0.85,171.22 0.85,213.93 0,224.06 40.4,900.26 105.2,1770.62 -2.93,2601.93 27.58,5320.77 62.72,7560.49 101.17,140.59 213.2,271.17 335.97,391.37 -20.01,-1241.1 -38.93,-2641.71 -51.62,-4094.91 95.92,879.51 195.01,1630.52 284.22,2038.48 105.68,483.63 156.94,1398.9 178.78,2393.25 64.32,44.06 130.82,85.79 199.16,125.45 44.43,25.63 89.21,50.04 134.61,73.22 -21.11,-1019.73 -72.49,-1965.26 -180.73,-2460.73 -125.09,-572.35 -269.7,-1820.41 -397.48,-3150.36 -90.79,-946.51 -173.29,-1935.12 -233.82,-2751.54 1.59,-1494.09 14.53,-2949 43.81,-4251.85zm-595.78 849.73c-178.53,382.95 -272.38,804.34 -276.16,1259.29l0 7838c4.02,477.29 107.02,917.71 303.01,1315.43 -46.86,-3174.89 -80.66,-7158.63 -26.85,-10412.72zm4337.28 11679.09c120.21,-70.66 233.95,-148.28 341.22,-232.36 23.18,-964.57 47.1,-1784.65 66.99,-2063.87 28.68,-401.87 120.82,-1073.31 301.68,-1897.54l-361.6 0c-161.69,762.73 -245.41,1381.94 -272.5,1760.25 -22.58,316.68 -50.04,1315.06 -75.79,2433.52zm471.18 -340.12c140.83,-123.74 269.09,-260.06 384.66,-408.45 127.65,-1232.57 324.62,-2460.13 628.49,-3362.58l0 -82.62 -350.37 0c-337.92,1033.64 -540.98,2471.11 -662.78,3853.65zm697.07 -900.01c204.54,-404.55 311.93,-853.77 316.08,-1341.67l0 -305.82c-126.92,545.62 -231.02,1100.89 -316.08,1647.49zm-24077.2 449.21l12.45 -17.45c211.86,-299.11 419.68,-689.14 651.55,-1194 34.66,-131.92 55.89,-256.76 81.64,-408.21 73.1,-431.4 182.32,-1073.67 722.33,-2663.56l0 70.3 0 1075.38 0 194.52c-91.16,371.11 -133.14,618.85 -167.43,820.21 -55.77,329.37 -91.16,537.81 -277.88,945.9l-6.34 13.79c-39.42,147.05 -95.19,303.5 -190.62,512.18l-12.33 26.97c200.39,-348.41 355.25,-660.58 389.91,-871.58 49.91,-304.48 122.16,-732.7 264.69,-1313.59l0 522.43 0 1038.77 0 77.86 0 30.88 0 1155.43c-55.52,336.21 -83.47,693.29 -91.04,1055.73l-330.83 0 -28.44 0 -330.72 0c6.96,-334.01 30.63,-663.99 76.89,-978.36l-61.63 99.22c-194.04,312.78 -384.29,619.7 -524.76,879.14l-177.44 0 0 -283.36 0 -74.2 0 -237.24 0 -253.35 0 -223.81zm1467.97 -14604.41c-129.72,-68.09 -262.5,-132.65 -388.56,-194.03 -302.65,-147.42 -571.49,-278.24 -708.54,-411.51 -8.79,130.09 7.69,248.59 73.71,366.11 57.23,101.66 336.94,237.97 660.58,395.52 117.89,57.36 240.9,117.27 362.81,180.25l0 219.78 -139.97 0c-147.54,-79.2 -300.94,-153.89 -445.56,-224.3 -367.57,-178.9 -685.35,-333.65 -777.61,-497.78 -151.08,-268.61 -97.99,-512.8 -27.94,-835.95 25.26,-116.18 52.84,-243.46 73.34,-387.59l94.21 0 267.63 0 95.31 0c-49.92,240.78 -72.86,433.84 34.04,624.22 57.36,101.65 337.07,237.85 660.71,395.39 54.3,26.49 109.83,53.58 165.84,81.16l0 288.73zm0 -975.18c-169.02,-126.56 -275.55,-267.02 -337.06,-414.32l337.06 0 0 414.32zm-1467.97 1110.52c143.52,18.43 293.26,50.89 449.46,99.34l2.56 0.73c60.29,16.72 306.31,94.34 625.93,320.71l-492.54 0c-142.78,-75.9 -242.85,-106.78 -274.22,-115.44 -7.56,-1.59 -15.01,-3.54 -22.57,-5.86 -99.1,-30.63 -195.14,-52.48 -288.62,-66.51l0 -232.97zm1467.97 9208.96c-323.03,841.56 -587.97,1630.76 -641.42,2312.09 -73.22,932.96 -366.84,1845.06 -775.9,2499.66 -16.72,26.73 -33.56,53.09 -50.65,78.96l0 -701.71c244.81,-554.53 414.32,-1214.62 466.91,-1887.41 70.3,-896.35 490.95,-1957.7 935.65,-3079.82l65.41 -164.99 0 943.22zm-259.81 -7231.61c17.45,17.21 34.78,34.54 51.62,51.87l208.19 238.82 0 556.36 0 79.2 0 542.7 0 2555.43 0 557.7 0 45.28 0 688.28c-518.65,1701.06 -1122.24,3287.77 -1144.69,3346.84 -0.74,2.32 -105.2,305.7 -323.28,652.89l0 -777.25c78.59,-208.8 311.32,-833.99 585.9,-1636.5 -191.48,435.79 -372.09,769.07 -585.9,997.4l0 -224.18 0 -331.94 0 -140.46c30.63,-47.59 60.9,-98.61 91.16,-152.55 -30.14,32.47 -60.53,60.41 -91.16,84.33l0 -542.08c7.94,-16.48 15.99,-33.32 24.17,-50.89l1.95 -4.39c180,-386.86 396.25,-1019.62 702.32,-2027.39 251.15,-826.43 312.77,-1524.96 224.91,-2046.3 -44.18,-262.86 -126.19,-478.87 -240.29,-640.81 -104.34,-147.66 -231.75,-246.75 -377.7,-291.17 -96.41,-29.17 -206.98,-34.54 -329.87,-13.79l-5.49 0.85 0 -229.18c176.22,-19.04 341.34,-4.15 493.27,41.98 225.28,68.34 410.78,205.26 549.77,402.23 103.12,146.44 182.45,328.4 234.68,542.08 -42.1,-324.01 -111.3,-615.3 -196.48,-864.99 -90.55,-265.43 -259.94,-479.11 -467.52,-617.75 -3.05,-1.7 -6.1,-3.66 -9.03,-5.49 -122.89,-80.54 -256.88,-133.87 -392.22,-154.13 -69.56,-10.49 -140.95,-12.08 -212.47,-4.03l0 -225.76c99.46,-6.35 198.92,-1.83 297.04,13.05 204.65,30.76 399.3,105.93 569.91,217.84 3.17,2.07 6.22,4.15 9.03,6.47 55.04,36.73 107.51,77.37 157.3,121.67 -85.42,-121.55 -190.13,-223.45 -307.04,-301.55 -3.17,-1.71 -6.22,-3.54 -9.15,-5.62 -122.65,-80.42 -256.65,-133.63 -392.11,-154.01 -106.04,-15.86 -216.12,-11.35 -324.98,16.6l0 -234.43c136.56,-20.26 274.34,-19.28 409.56,0.98 204.65,30.87 399.18,105.92 569.9,217.83 3.18,2.2 6.23,4.39 9.16,6.59 94.21,62.97 181.59,137.41 259.44,222.23 -127.16,-187.69 -283.48,-365.38 -473.37,-530.86l433.47 0zm-166.34 4792.35c98.12,-317.54 167.68,-627.51 212.71,-926.62 -42.59,217.35 -99.58,446.17 -172.07,684.75 -73.22,240.65 -141.32,460.07 -205.02,660.33l95.56 -239.8c23.91,-59.8 46.98,-119.35 68.82,-178.66zm-1041.82 -2847.95c58.95,-5.25 119.23,-2.44 180.49,9.4 151.94,29.53 289.47,116.17 399.43,278.6 227.59,336.21 268.97,890.38 208.19,1446.37 -76.27,696.46 -314.73,1405.98 -547.09,1690.08 -89.57,109.47 -167.55,204.17 -241.02,281.05l0 -498.27c110.81,-185.99 218.45,-468.99 301.19,-791.04 -34.05,56.5 -72,103.85 -113.62,139.49 -54.67,46.86 -117.03,78.46 -187.57,91.89l0 -375.14c15.01,-31.73 29.41,-66.75 42.96,-104.34 45.15,-125.21 79.45,-277.39 100.8,-435.42 48.57,-359.64 30.39,-733.44 -78.35,-860.36 -21.96,-25.5 -43.81,-45.76 -65.41,-61.26l0 -254.45c28.07,4.15 56.14,10.38 84.09,18.31 111.54,31.85 215.63,93.97 299.96,192.45 9.76,11.35 18.92,24.04 27.58,37.59 -32.83,-167.44 -86.16,-314.85 -164.5,-430.54 -64.44,-95.31 -122.65,-141.81 -173.78,-151.7 -19.77,-3.78 -44.79,0.74 -73.35,11.84l0 -234.55zm3348.3 -6991.56c-115.2,1353.25 -98.48,3243.71 -85.67,4692.77 7.81,881.1 14.28,1598.67 -11.96,1935.98 -64.55,834.84 381,2309.65 745.28,3515.12 133.26,441.53 255.78,847.29 337.43,1167.39 230.03,902.09 228.45,5151.14 212.34,7289.09 -135.58,-34.05 -252.25,-74.08 -332.79,-120.33 16.11,-2132.09 18.3,-6396.88 -211.73,-7299.33 -83.36,-327.67 -204.66,-729.05 -336.7,-1165.81 -153.52,-508.4 -321.57,-1064.4 -459.71,-1600.75l0 -8397.78 143.51 -16.35zm-143.51 9283.88c87.38,303.14 178.05,603.23 264.08,888.3 133.39,441.28 255.91,846.81 337.56,1167.03 220.51,865.24 228.08,4809.07 214.05,7016.7 -123.14,-89.45 -233.58,-190.86 -331.82,-304.84 12.57,-2233.02 0.12,-6000.63 -214.42,-6842.44 -69.07,-271.16 -164.01,-592.6 -269.45,-942.97l0 -981.78zm0 1985.4c89.82,856.45 182.93,1588.79 266.65,1984.8 183.91,870.85 191.47,3184.89 173.04,4743.66 -58.82,-73.23 -112.88,-151.45 -162.3,-234.56 -67.49,-113.86 -122.89,-232.84 -165.97,-357.2 9.52,-1295.29 -4.64,-2916.78 -111.42,-3856.58l0 -2280.12zm2546.89 6035.29c-35.64,-1.1 -95.31,-4.64 -167.68,-10.62 2.56,563.69 2.56,1067.33 1.83,1450.16 61.51,3.17 117.52,5.24 165.85,5.73l0 -1445.27zm-268.24 -19.89c-105.8,-10.62 -224.66,-25.26 -332.18,-44.06 2.44,576.62 2.32,1087.34 1.47,1465.66 116.42,13.79 230.03,24.28 333.03,31.6 0.61,-386.73 0.37,-890.98 -2.32,-1453.2zm-466.3 -71.27c-84.93,-20.38 -151.08,-44.05 -179.75,-71.02 -79.08,-81.4 -130.83,-176.47 -152.92,-287.03 0.13,669.73 -3.17,1286.38 -7.2,1775.25 106.42,22.21 219.79,41.37 333.28,57.24 3.3,-419.68 5.98,-925.52 6.59,-1474.44zm-344.5 -2304.65l0 -4027.92c-63.22,-218.68 -135.59,-458.12 -211.37,-708.9 -142.29,-470.57 -296.67,-982.03 -428.47,-1480.54 136.44,211.24 276.66,553.92 410.29,962.49 79.93,244.56 157.18,511.82 229.55,787.99l0 -953.59c-135.1,-367.45 -276.17,-658.26 -413.7,-812.15 -162.92,-181.95 -296.55,-537.93 -394.55,-943.94 -72.49,-300.95 -124.84,-628.61 -154.37,-933.09 0.61,-49.18 2.56,-96.78 6.1,-142.42 26.11,-337.3 19.65,-1054.63 11.84,-1935.61 -6.72,-779.93 -14.89,-1687.76 -2.93,-2570.93 15.62,-141.81 29.9,-295.33 45.03,-457.39 51.5,-553.19 112.27,-1203.89 253.83,-1769.52l-550.26 62.48c-48.32,606.4 -71.63,1311.76 -81.39,2033.12 -6.72,61.26 -13.55,119.72 -20.75,174.88 -74.2,571.37 -49.67,2063.99 -32.46,3099.34 5.37,327.06 9.88,605.91 9.88,834.85 0,162.19 9.77,346.22 28.68,539.52 -8.66,856.57 408.09,2236.07 752.35,3375.39 131.92,436.77 253.35,838.15 336.7,1165.81 86.04,337.55 139.61,1146.04 172.07,2137.22 -45.52,312.65 -43.2,388.19 -43.2,388.56l55.16 22.45c9.64,369.9 16.84,758.34 21.97,1151.9zm0 -5699.44l0 -734.41c-146.69,-403.7 -280.93,-883.42 -416.63,-1412.2 -66.03,-257.01 -113.13,-617.75 -144.62,-1040.24 -2.07,-140.95 -4.88,-306.55 -7.81,-485.09 -16.96,-1033.28 -41.61,-2522.73 32.95,-3096.54 24.53,-188.67 44.79,-405.16 66.51,-639.1 56.51,-607.13 124.11,-1331.9 297.77,-1932.69l-426.76 48.45c-21.84,95.07 -45.76,186.59 -72.24,272.39 -130.95,424.68 -254.94,2053.25 -273.12,3649.24 -8.42,733.68 5.37,1460.89 50.89,2061.79 1.46,121.8 2.32,233.82 2.32,335.97 0,417.85 64.68,980.8 183.54,1473.34 99.34,412.48 238.09,777.25 410.77,970.18 96.9,108.37 197.09,292.89 296.43,528.91zm0 -3319.99l0 -1583.9c-17.21,-225.89 -27.46,-478.87 -29.54,-772.49 -3.05,-449.34 8.18,-843.88 29.54,-1199.74l0 -2483.67 -22.34 2.56 -8.05 47.35 -29.29 168.78c-156.81,901.35 -313.14,1799.66 -302.77,3328.65 8.05,1185.82 151.69,1715.09 349.14,2442.91l13.31 49.55zm8661.62 -839.73l-344.51 -0.61c-86.64,889.76 -224.91,1655.05 -439.45,2120.25l-0.37 1.1c-0.24,0.98 -84.44,334.5 -220.88,-265.18 -82.74,-363.79 -164.14,-663.63 -237.85,-935.65 -82.5,-304.24 -155.59,-573.57 -213.2,-871.7l-184.76 1161.53c181.59,706.23 360.62,1325.19 571.5,1792.96 125.33,278.36 274.7,510.96 458.97,687.91l38.32 -224.79c-54.55,-98.12 -110.2,-211.49 -167.43,-338.28 -43.2,-96.04 -85.3,-198.68 -126.19,-307.17 9.77,3.79 19.53,6.23 29.05,7.81l-140.22 -333.4 173.9 76.4c153.64,69.07 226.87,43.2 314.73,-193.06 9.76,-29.29 17.57,-54.8 23.43,-74.57l1.1 -27.09 30.75 -62.12c30.88,-71.27 60.17,-148.64 87.87,-231.99l317.41 -1697.88c9.89,-93.24 19.16,-188.3 27.83,-284.47zm-388.44 -0.73l-339.02 -0.61c-30.75,423.1 -104.58,696.21 -179.76,870.6 -69.31,-302.89 -105.8,-594.92 -118.49,-871.09l-324.62 -0.49c26.97,369.41 97.14,764.68 231.38,1174.48l90.31 276.29 237.36 -136.81c1.34,-0.85 348.41,-180.73 402.84,-1312.37zm-1295.41 1479.2l-278.85 1752.92c89.45,325.23 180.49,625.8 276.77,894.04 -95.67,-218.94 -193.06,-391.98 -288.61,-498.89 -14.4,-16.23 -28.68,-33.68 -42.71,-52.47l-49.67 312.78c92.99,195.74 186.22,441.64 276.53,717.44 196.48,601.03 376.6,1339.23 508.77,2011.77 4.02,20.38 7.81,42.1 11.59,65.29 -25.38,96.4 -49.18,189.03 -71.15,277.02 -25.75,-293.5 -56.62,-524.39 -93.35,-668.76 -81.65,-320.22 -204.17,-725.75 -337.55,-1167.03 -104.47,-345.6 -215.52,-713.3 -319.37,-1081.73l-103.37 649.36 91.41 303.26c131.92,436.64 253.22,837.9 336.69,1165.56 86.04,337.55 139.49,1146.04 171.95,2137.34 -45.39,312.53 -43.08,388.07 -43.08,388.44l55.16 22.45c5.13,195.99 9.52,397.23 13.31,601.64l694.99 -4071.97c-100.19,-132.04 -205.02,-325.96 -314.73,-569.66 -48.57,-107.88 -95.43,-223.94 -141.19,-347.32 155.35,164.51 336.45,287.03 550.74,360.74l42.35 -247.98c-8.91,13.06 -17.7,25.39 -26.6,36.61 -97.75,-131.67 -199.78,-321.68 -306.56,-558.8 -35.75,-79.2 -70.53,-163.04 -104.58,-250.78 138.26,193.18 299.84,346.7 492.17,453.73l14.03 -81.65c-133.63,-114.1 -275.92,-356.22 -427.86,-693.4 -210.63,-467.4 -389.9,-1088.81 -572.1,-1798.33 -5.13,-19.89 -10.13,-40.51 -15.13,-61.62zm-567.84 3569.18l-102.02 640.45c45.77,158.4 87.01,307.04 121.55,442.99 183.42,719.28 219.18,3575.53 217.83,5784.74l321.69 -1884.72c-20.99,-1669.33 -77,-3257.75 -207.46,-3769.45 -81.52,-320.1 -204.04,-725.86 -337.43,-1167.39l-14.16 -46.62zm-189.15 1188.63l-185.01 1162.52c96.65,1719.24 90.06,4588.91 77.37,6162.57l253.35 0 83.59 -489.61c11.72,-2241.56 -2.68,-5946.81 -215.63,-6782.15l-13.67 -53.33zm-316.81 1990.65l-199.16 1252.09c61.87,1327.51 42.35,3087.02 23.55,4082.35l335.11 0c26,-1473.34 46.01,-4319.83 -159.5,-5334.44zm-641.78 1153.24l-866.58 -5446.95 0.12 61.14c-62.24,-222.35 -121.79,-444.7 -175.36,-662.53 -7.45,-142.05 -16.72,-287.52 -27.83,-436.04l-33.8 -450.92 -389.42 -2447.43 -107.76 0 4.76 69.19c3.79,521.71 4.4,954.81 -6.71,1238.06 -29.9,-430.06 -59.8,-868.9 -88.35,-1307.25l-604.33 0c85.43,399.42 164.39,718.42 223.09,925.76 53.81,190.5 92.01,516.09 116.05,929.31l-10.74 -80.3 -0.73 -2.2c-1.22,-4.03 -285.44,-937.6 -494.85,-1772.57l-298.38 0c199.77,779.2 447.5,1595.98 461.42,1641.5 136.19,987.76 166.7,2022.87 133.26,3014.9l635.68 3724.17c26.61,-137.9 57.85,-285.93 91.53,-445.31 169.75,-804.21 401.01,-1899.49 421.02,-3447.15 51.38,172.81 102.64,342.92 152.55,507.92l4.03 13.18c1.58,254.93 3.29,509.13 5.37,761.87 -87.38,751.13 -214.91,1354.72 -319.13,1848.6 -82.37,390.27 -150.47,712.44 -172.8,982.27 -12.08,146.56 -23.8,370.13 -34.78,644.47l285.93 1675.31c22.82,-946.15 50.77,-1812.36 81.28,-2182.62 22.57,-272.5 90.18,-592.48 172.07,-980.43l6.71 -32.22c25.02,2105.36 59.31,3977.03 84.45,5214.35l106.29 623.12 235.65 0c-31,-1468.83 -85.3,-4293.23 -111.66,-7372.93 226.74,975.92 220.64,5299.54 204.04,7372.93l333.65 0c8.18,-1091.62 12.32,-2723.11 -15.74,-4181.2zm-2840.63 -9382.73l-120.21 0 278 1628.81 12.08 39.66c6.22,45.77 12.33,91.41 18.18,137.29l456.54 2675.15c16.35,-888.42 -21.23,-1802.47 -142.29,-2679.17l-0.61 -1.96c-1.22,-4.27 -291.67,-957.98 -501.69,-1799.78zm4410.74 2530.05c5.37,35.02 11.23,69.19 17.09,102.39 128.13,453.85 259.93,855.22 406.99,1181.67 183.54,407.48 352.92,676.08 510.47,747.59 12.82,-0.85 25.63,-4.27 38.56,-10.01 -224.05,-183.78 -400.15,-443.6 -544.28,-763.45 -155.59,-345.61 -294.1,-773.59 -428.83,-1258.19zm931.87 2837.7c-261.53,-185.37 -461.3,-466.79 -621.65,-822.77l-21.85 -48.93c27.7,76.88 55.04,156.93 82.01,239.43 130.58,398.69 253.96,859.99 361.1,1323.11 63.22,-222.83 130.95,-455.31 200.39,-690.84zm-3875.74 -2164.92c-52.48,-213.44 -99.34,-422.36 -137.54,-622.26 22.7,309.61 44.91,608.23 66.27,891.59 56.14,744.55 63.95,1407.32 41.25,1998.83 54.79,-650.33 75.66,-1399.87 30.02,-2268.16zm21727.27 8606.22c-90.79,88.23 -192.45,165.72 -304.84,232.6 0.12,581.99 -2.81,1120.66 -6.1,1558.64 104.58,-27.09 206.97,-59.67 307.04,-97.38 3.29,-487.54 5.37,-1073.8 3.9,-1693.86zm-483.38 322.17c-97.75,41.37 -199.53,72.37 -305.58,93.36 -0.24,548.31 -3.05,1052.2 -6.34,1461.63 104.09,-10.38 206.48,-25.39 306.67,-45.28 3.18,-432.62 5.49,-952.49 5.25,-1509.71zm-343.04 100.32c-91.04,15.74 -185.13,24.41 -283,25.99l-22.7 -0.49c-1.96,552.22 -9.52,1061.47 -16.72,1445.27l39.42 0.49c90.91,-0.73 180.37,-4.88 268.47,-12.44 7.21,-401.38 13.67,-912.96 14.53,-1458.82zm-368.43 22.7c-106.54,-6.23 -208.8,-21.48 -307.16,-45.64 -11.35,506.32 -21.24,1018.63 -29.05,1465.04 100.56,13.42 203.07,22.21 307.29,26.48 7.93,-446.41 17.69,-950.78 28.92,-1445.88zm-361.71 -60.05c-106.05,-30.14 -207.71,-71.14 -305.46,-123.37 0.12,573.81 -2.44,1105.28 -5.86,1539.6 99.95,24.53 201.85,44.18 305.95,58.95 3.05,-422 5.61,-929.55 5.37,-1475.18zm-429.94 -198.18c-114.71,-76.27 -216.98,-164.51 -307.16,-264.82 12.32,694.51 24.41,1291.38 34.05,1754.39 98.97,39.17 200.38,73.22 304.11,101.9 -9.03,-427.86 -19.65,-967.87 -31,-1591.47zm-596.87 -730.39c-68.59,-174.63 -103.61,-361.83 -106.91,-564.66l0 -1500.92 -129.36 14.77c-47.71,685.48 -87.25,2615.96 -109.34,3900.76 88.11,64.07 180.13,123.98 276.17,179.63l28.19 15.99c10.25,-596.27 24.16,-1344.84 41.25,-2045.57zm-450.44 -2026.4l-993.13 112.76c-28.43,131.67 -56.74,253.34 -84.08,363.79 26.24,-112.15 52.84,-233.58 79.57,-363.3l-126.8 14.4 0 1334.09c2.32,273.36 36.98,534.52 103.12,782.62 39.42,-543.67 98.36,-1046.34 185.99,-1398.29 -42.35,528.91 -65.54,1134.45 -77.01,1726.93 56.38,141.08 123.75,277.15 201.97,408.21 77,128.99 162.06,250.79 255.18,365.01 23.43,-1092.1 54.18,-2211.17 89.08,-2632.19 2.2,-27.34 4.89,-55.04 8.18,-83.47 -29.17,707.68 -54.06,1800.51 -71.88,2746.42 92.99,111.29 193.79,215.27 302.04,311.67 23.92,-1302.24 61.87,-2966.08 106.17,-3501.45 4.88,-59.8 12.2,-122.16 21.6,-187.2zm3586.39 3983.86c107.03,-68.34 208.68,-142.42 304.97,-221.98 -2.2,-1013.63 -12.69,-2361.89 -46.74,-3500.36l0 -1.22c0.37,-28.31 8.18,-239.8 165.6,-1099.06 41.62,-227.23 119.6,-541.84 217.59,-903.06 -30.26,-35.51 -59.43,-67.12 -87.37,-94.7 -98.73,-97.26 -150.6,-148.28 -155.23,-148.28l-24.65 -20.13c-75.42,272.75 -141.08,523.29 -190.5,735.14l-5.74 -68.83c-14.03,-158.64 -29.65,-293.25 -46.98,-398.2 32.09,-121.55 67,-249.56 103.97,-382.34l-561.24 -460.56c51.74,221.62 99.21,443.6 141.32,658.38 3.66,18.67 7.2,38.57 10.74,59.92 -23.31,88.6 -45.16,173.66 -65.42,254.45 -23.55,-269.58 -51.98,-481.56 -85.66,-614.09 -35.39,-138.39 -78.96,-294.35 -128.02,-463l-355.12 -291.3c68.82,232.23 130.33,446.41 178.17,634.22 65.9,258.72 111.05,818.74 141.56,1526.18 103.49,123.14 259.08,404.67 285.32,460.81 13.18,30.14 25.5,61.75 36.61,94.7 18.55,-126.8 45.64,-295.45 84.94,-518.78 68.34,1359.24 81.15,3456.92 81.88,4762.09zm553.44 -452.14c115.08,-119.6 220.27,-248.96 315.22,-387.47 27.7,-1434.77 65.16,-3131.81 93.11,-3537.94 12.69,-184.89 40.15,-434.45 85.3,-733.8 -48.81,-98.36 -100.31,-188.3 -154.13,-268.97 -35.51,-54.18 -69.8,-104.95 -103.12,-151.94 -74.44,432.87 -116.54,786.65 -133.26,1028.77 -31.61,459.1 -74.93,2539.93 -103.12,4051.35zm329.01 -407.97c31.24,-46.62 61.38,-94.09 90.42,-142.54 105.56,-177.07 191.48,-363.42 257.13,-558.43 35.64,-592.85 86.04,-1225.98 156.94,-1846.77l0 -281.66c-4.64,-363.18 -54.55,-681.82 -149.61,-960.55 -207.22,1228.42 -307.05,2655.02 -354.88,3789.95zm-1891.07 -6263.25l-417.73 -342.8c-2.2,185.25 -7.81,363.3 -16.11,534.76 -33.32,-111.54 -68.22,-226.98 -103.98,-345.24 -37.58,-124.72 -76.27,-252.61 -115.08,-382.58l-597.85 -490.46c22.58,264.33 46.25,530.98 70.78,793.84 39.78,429.2 81.52,848.76 123.75,1233.05l319.73 255.79c-47.11,-419.56 -94.09,-886.47 -138.51,-1365.58 -11.96,-129.36 -23.92,-259.33 -35.39,-389.66l68.46 227.11c121.18,401.01 232.48,769.56 309.12,1070.13 13.3,52.23 25.75,116.67 37.34,192.21 -15.38,145.1 -32.46,284.34 -50.77,418.09l9.77 7.81c67.6,714.03 239.43,1110.77 456.9,1188.88 -24.77,-634.35 -60.29,-1166.18 -110.57,-1492.87 21.97,-208.32 40.52,-428.59 53.94,-661.43 32.47,113.98 61.75,221.49 87.26,321.68 75.05,294.47 123.13,978.97 153.4,1826.88 93.11,-36.49 190.99,-121.91 289.83,-256.28 -30.38,-671.19 -74.68,-1200.83 -138.26,-1450.51 -63.83,-250.18 -154.74,-557.1 -256.03,-892.82zm-1507.76 -1237.2l-133.63 -109.59c-4.76,0 -47.1,-41.61 -122.4,-129.72 -52.35,-57.6 -102.63,-133.02 -153.64,-226.26 0.36,171.34 0.85,342.8 1.46,514.38 -57.23,-204.41 -111.9,-408.69 -161.09,-608.71 -6.83,-130.46 -15.37,-263.72 -25.5,-400.16 -55.65,-737.22 -117.77,-1587.68 -177.32,-2460.24 -1.1,-158.28 -2.56,-325.59 -4.03,-499.86 -1.7,-187.45 -3.54,-382.83 -5,-583.94 -121.79,81.27 -235.65,169.75 -342.07,265.55 14.89,227.6 30.02,455.31 45.4,681.45 3.54,478.5 3.91,875.85 -6.22,1136.03 -40.03,-573.81 -79.57,-1164.59 -115.81,-1745.72 -99.59,96.16 -191.97,199.52 -277.39,309.84l5.61 85.19 -14.64 -73.35c-67.86,88.72 -131.44,181.96 -190.62,279.83l-22.7 38.2c70.53,322.9 135.21,582.35 184.52,756.13 49.42,174.76 84.45,473.5 106.41,852.79l-9.88 -73.47 -0.49 -1.83c-0.98,-3.29 -202.34,-664.36 -381.73,-1344.59 -64.31,132.41 -117.64,269.09 -159.99,410.04 123.5,440.31 228.45,786.16 236.99,814.23 113.62,823.86 147.06,1683.48 129.24,2516.86l7.08 10.74c126.92,194.65 239.92,338.17 338.65,440.19 98.85,97.14 150.47,148.15 155.35,148.15l199.16 159.38c10.5,-480.7 -1.1,-1010.46 -45.15,-1594.89 -19.53,-260.06 -40.03,-534.03 -60.77,-818.37 35.02,183.42 78.1,375.14 126.18,570.88 36.61,695.97 26.73,1308.84 -9.88,1850.55l296.79 237.49c21.35,-282.27 35.63,-584.31 39.78,-907.95 47.11,158.65 94.34,314.73 139.98,466.18l3.78 12.2c1.22,193.92 2.56,387.22 4.03,579.55l568.32 454.58c-58.21,-215.15 -131.8,-463 -212.1,-729.41 30.39,-388.07 47.47,-814.1 43.32,-1282.35zm-463.73 -2753.74c14.76,-30.02 30.63,-59.68 47.83,-88.84 87.38,-144.62 193.55,-268.85 319.86,-373.92 5.25,-565.15 13.06,-1113.33 23.43,-1635.89 -179.76,59.31 -352.56,136.31 -518.29,230.77 40.4,629.46 83.97,1263.19 127.17,1867.88zm460.68 -534.27c36.61,-25.88 74.44,-50.4 113.98,-73.59 74.2,-41.98 151.21,-77.62 231.02,-106.54 -0.49,-386.49 0.97,-908.68 11.22,-1489.81 -125.69,21.35 -248.46,50.4 -368.42,87.25 1.71,286.3 4.15,563.93 6.47,825.7 2.31,271.89 4.63,526.7 5.73,756.99zm482.65 -222.48c97.02,-24.4 198.31,-39.54 304.48,-44.05l-3.41 -391.49 -3.54 -424.69c16.72,270.31 34.17,542.82 52.11,814.84l25.14 -0.25c125.45,0 244.07,14.28 356.95,41.37l-3.29 -405.64c-3.05,-332.55 -6.11,-690.48 -7.57,-1059.76 -113.13,-13.18 -228.45,-20.38 -346.09,-21.36 -131.56,1.1 -260.31,10.01 -386.13,26.36 1.59,314.24 4.28,618.48 6.84,904.29 1.71,196.6 3.42,384.41 4.51,560.38zm740.03 -2.31c133.75,33.07 259.33,84.08 378.19,151.2 68.09,40.03 131.68,83.96 190.99,131.92 -36.01,-481.55 -50.16,-1051.34 -47.84,-1635.77 -170.12,-53.45 -346.46,-91.28 -528.66,-113.25 -1.47,82.98 -2.81,166.09 -3.79,248.95 -4.76,416.63 -1.83,830.82 11.11,1216.95zm587.6 298.13c125.09,104.83 230.53,228.33 317.54,372.09 126.92,217.59 192.94,458.49 197.7,731.85l0 1077.94c42.1,115.32 85.55,223.81 130.45,324.74l242.73 -27.58c-76.63,-189.28 -149,-400.89 -219.29,-630.81 350.36,869.02 614.93,-173.29 615.79,-176.83 188.54,-409.55 313.02,-1070.98 393.32,-1842.98 -30.87,-60.65 -64.19,-120.33 -99.7,-179.03 -55.77,-92.01 -115.08,-179.88 -178.42,-263.6 -76.76,504.62 -179.39,931.38 -315.22,1226.34l-0.36 0.98c-0.25,0.73 -77.62,307.04 -202.83,-243.34 -76.03,-334.26 -150.71,-609.45 -218.44,-859.13 -88.84,-328.04 -165.97,-611.77 -221.99,-945.91 -160.47,-87.37 -327.78,-158.52 -501.32,-213.56 1.34,48.94 3.17,96.65 5,143.03 1.83,542.94 18.55,1064.76 55.04,1505.8zm515.24 2282.93l0 238.45 90.79 -10.25c-30.87,-72.49 -61.14,-148.64 -90.79,-228.2zm913.68 134.72l554.17 -62.97 0 -1250.74c-3.3,-370.63 -70.3,-718.8 -199.41,-1042.92 -59.19,570.64 -153.89,1291.75 -274.09,1946.84 -25.75,140.34 -52.72,277.63 -80.67,409.79zm-224.67 -3265.07c-82.13,-88.11 -169.63,-170.73 -262.5,-248.34 -19.4,65.78 -40.15,122.16 -60.77,170.24 -20.14,-87.5 -37.1,-174.02 -51.38,-259.45 -96.28,-72.85 -197.82,-140.58 -304.97,-203.43l-14.52 -8.42c35.39,241.38 92.26,492.41 176.47,749.66l82.86 253.47 217.83 -125.57c0.74,-0.49 114.72,-59.43 216.98,-328.16zm-5010.18 1273.32c-50.52,206.61 -78.23,421.64 -82.5,645.09l16.48 54.67c79.81,578.69 120.2,1174.96 130.82,1767.45l7.57 22.08c88.59,253.11 188.42,469.11 299.59,651.19 8.67,-771.03 -28.06,-1559.99 -132.65,-2318.56l-0.49 -1.83c-0.73,-2.44 -109.83,-360.5 -238.82,-820.09zm4895.23 833.27c-140.35,41.37 -319.13,-161.46 -512.31,-1009.97 -77.74,-341.95 -151.08,-612.26 -217.59,-857.55 -25.14,-92.75 -49.43,-182.08 -72.49,-269.94 54.43,514.13 152.67,876.46 272.63,1318.96 67.73,249.69 142.41,524.88 218.44,859.13 125.21,550.39 202.58,244.08 202.83,243.22l0.24 -0.97c38.81,-83.97 74.81,-178.79 108.25,-282.88z"/>
     <path class="fil0" style="mask:url(#id2)" d="M47281.47 9605.97c148.15,0 292.64,37.95 434.08,113.86 140.95,76.27 251.15,184.88 329.86,326.57 78.59,141.31 118.13,289.1 118.13,442.87 0,152.17 -38.68,298.25 -116.54,438.47 -77.49,140.46 -186.47,249.56 -326.32,326.93 -140.1,77.86 -286.3,116.67 -439.21,116.67 -152.91,0 -299.48,-38.81 -439.21,-116.67 -140.22,-77.37 -249.2,-186.47 -327.06,-326.93 -78.22,-140.22 -117.03,-286.3 -117.03,-438.47 0,-153.77 39.54,-301.56 118.62,-442.87 79.08,-141.69 189.28,-250.3 330.6,-326.57 140.95,-75.91 285.93,-113.86 434.08,-113.86zm0 146.2c-124.23,0 -244.81,31.85 -362.2,95.43 -117.4,63.46 -209.17,154.5 -275.44,272.26 -66.39,118.26 -99.46,241.27 -99.46,369.41 0,126.91 32.71,248.7 97.87,365.37 65.05,116.55 156.09,207.58 273.12,272.75 116.91,65.05 238.7,97.75 366.11,97.75 127.04,0 249.2,-32.7 366.23,-97.75 116.91,-65.17 207.58,-156.2 272.26,-272.75 64.68,-116.67 97.02,-238.46 97.02,-365.37 0,-128.14 -32.71,-251.15 -98.61,-369.41 -65.9,-117.76 -157.67,-208.8 -275.55,-272.26 -117.77,-63.58 -238.34,-95.43 -361.35,-95.43zm-387.34 1224.63l0 -949.56 326.32 0c111.78,0 192.33,8.42 242.36,25.99 49.92,17.57 89.33,48.33 119.35,91.77 29.54,43.93 44.3,90.31 44.3,139.37 0,69.56 -24.77,129.84 -74.32,181.34 -49.42,51.5 -115.32,80.3 -197.21,86.65 33.56,13.91 60.66,30.75 80.67,50.28 38.32,37.58 85.06,100.19 140.58,188.42l115.82 185.74 -187.33 0 -84.2 -149.74c-66.27,-117.4 -119.48,-191.23 -160.11,-220.76 -27.95,-21.97 -69.08,-32.83 -123.02,-32.83l-89.81 0 0 403.33 -153.4 0zm153.4 -534.27l186.1 0c88.6,0 149.25,-13.55 181.59,-39.91 32.34,-26.36 48.81,-61.51 48.81,-105.44 0,-27.95 -8.05,-53.08 -23.67,-75.42 -15.5,-21.96 -37.1,-38.8 -64.68,-49.54 -27.95,-11.23 -79.08,-16.36 -154.13,-16.36l-174.02 0 0 286.67z"/>
     <path class="fil0" style="mask:url(#id4)" d="M5255.1 25378.5l-214.05 0 0 -1960.26 -434.33 0 0 -214.17 1082.71 0 0 214.17 -434.33 0 0 1960.26zm1417.69 0l-214.05 0 0 -2174.43 214.05 0 0 975.55 1033.65 0 0 -975.55 214.17 0 0 2174.43 -214.17 0 0 -990.81 -1033.65 0 0 990.81zm2416.68 -1198.88l914.41 0 0 214.18 -914.41 0 0 773.7 914.41 0 0 211 -1128.46 0 0 -2174.43 1128.46 0 0 214.17 -914.41 0 0 761.38zm4736.34 -975.55l437.86 1782.94 542.82 -1782.94 209.04 0 -672.9 2174.43 -177.32 0 -436.28 -1774.28 -438.35 1774.28 -177.44 0 -675.84 -2174.43 211.49 0 540.38 1782.94 440.91 -1782.94 195.63 0zm2007.49 1077.57c0,265.07 86.15,486.81 258.47,666.2 172.19,178.9 384.78,268.6 637.64,268.6 246.63,0 455.19,-90.8 625.43,-271.65 170.24,-181.47 255.3,-404.19 255.3,-669.25 0,-246.75 -87.62,-459.83 -262.99,-638.12 -174.87,-179.03 -385.87,-268.12 -633.12,-268.12 -100.31,0 -197.21,17.33 -289.96,51.38 -93.23,34.17 -178.9,85.18 -257.86,151.45 -103.49,87.62 -185.13,194.64 -244.19,321.07 -59.19,126.43 -88.72,255.91 -88.72,388.44zm-223.21 -3.53c0,-151.45 29.05,-295.7 87.14,-433.35 58.57,-137.05 142.66,-259.94 253.34,-368.43 106.54,-104.59 223.7,-183.05 351.71,-236.02 127.89,-52.47 266.53,-79.08 415.9,-79.08 151.93,0 293.01,26.61 423.1,80.06 129.97,53.08 248.71,132.53 356.22,238.09 110.57,108.49 193.67,229.79 249.2,363.91 55.65,134.61 83.59,279.34 83.59,434.82 0,153.88 -23.92,295.57 -71.88,424.56 -47.35,128.87 -119.23,246.14 -214.54,351.71 -110.56,121.3 -235.52,212.46 -375.13,274.21 -139.12,61.63 -290.57,92.75 -453.61,92.75 -312.41,0 -574.91,-109.59 -787.01,-329.25 -211.98,-219.18 -318.03,-490.83 -318.03,-813.98zm3179.16 3.53c0,265.07 86.16,486.81 258.47,666.2 172.2,178.9 384.78,268.6 637.64,268.6 246.64,0 455.2,-90.8 625.44,-271.65 170.24,-181.47 255.29,-404.19 255.29,-669.25 0,-246.75 -87.62,-459.83 -262.98,-638.12 -174.88,-179.03 -385.88,-268.12 -633.13,-268.12 -100.31,0 -197.21,17.33 -289.95,51.38 -93.24,34.17 -178.91,85.18 -257.86,151.45 -103.49,87.62 -185.13,194.64 -244.2,321.07 -59.19,126.43 -88.72,255.91 -88.72,388.44zm-223.2 -3.53c0,-151.45 29.04,-295.7 87.13,-433.35 58.58,-137.05 142.66,-259.94 253.35,-368.43 106.54,-104.59 223.69,-183.05 351.71,-236.02 127.89,-52.47 266.52,-79.08 415.89,-79.08 151.94,0 293.01,26.61 423.1,80.06 129.97,53.08 248.71,132.53 356.23,238.09 110.56,108.49 193.67,229.79 249.19,363.91 55.65,134.61 83.6,279.34 83.6,434.82 0,153.88 -23.92,295.57 -71.88,424.56 -47.35,128.87 -119.23,246.14 -214.54,351.71 -110.57,121.3 -235.53,212.46 -375.14,274.21 -139.12,61.63 -290.57,92.75 -453.61,92.75 -312.41,0 -574.91,-109.59 -787.01,-329.25 -211.97,-219.18 -318.02,-490.83 -318.02,-813.98zm3277.03 -866.09l0 1761.59 443.48 0c276.29,0 489.24,-77.5 638.61,-232.97 149.37,-154.87 223.81,-375.14 223.81,-659.48 0,-142.79 -25.5,-273.73 -76.02,-394.55 -50.89,-120.32 -123.26,-221.25 -218.08,-302.77 -70.42,-61.63 -149.86,-106.05 -237,-132.04 -87.74,-26.48 -215.14,-39.78 -382.33,-39.78l-392.47 0zm-211 -207.95l618.23 0c170.24,0 313.51,16.84 429.2,51.01 115.69,33.68 218.2,87.62 306.31,162.55 124.36,104.58 220.77,232.48 289.59,383.8 68.71,151.45 102.88,313.03 102.88,485.34 0,192.08 -37.71,366.96 -113.13,525 -75.9,157.91 -182.93,286.42 -321.07,385.75 -91.29,64.81 -190.14,111.18 -296.67,139.25 -106.54,27.94 -270.68,41.73 -492.42,41.73l-522.92 0 0 -2174.43zm4314.33 2174.43l0 -2174.43 1073.43 0 0 214.17 -862.43 0 0 761.38 862.43 0 0 214.18 -862.43 0 0 984.7 -211 0zm2141.49 -1096.86c0,265.07 86.16,486.81 258.47,666.2 172.2,178.9 384.78,268.6 637.64,268.6 246.64,0 455.19,-90.8 625.43,-271.65 170.25,-181.47 255.3,-404.19 255.3,-669.25 0,-246.75 -87.62,-459.83 -262.98,-638.12 -174.88,-179.03 -385.88,-268.12 -633.13,-268.12 -100.31,0 -197.21,17.33 -289.95,51.38 -93.24,34.17 -178.91,85.18 -257.86,151.45 -103.49,87.62 -185.13,194.64 -244.2,321.07 -59.19,126.43 -88.72,255.91 -88.72,388.44zm-223.2 -3.53c0,-151.45 29.04,-295.7 87.13,-433.35 58.58,-137.05 142.66,-259.94 253.35,-368.43 106.53,-104.59 223.69,-183.05 351.71,-236.02 127.89,-52.47 266.52,-79.08 415.89,-79.08 151.94,0 293.01,26.61 423.1,80.06 129.97,53.08 248.71,132.53 356.22,238.09 110.57,108.49 193.68,229.79 249.2,363.91 55.65,134.61 83.6,279.34 83.6,434.82 0,153.88 -23.92,295.57 -71.88,424.56 -47.35,128.87 -119.23,246.14 -214.54,351.71 -110.57,121.3 -235.53,212.46 -375.14,274.21 -139.12,61.63 -290.57,92.75 -453.61,92.75 -312.41,0 -574.91,-109.59 -787.01,-329.25 -211.97,-219.18 -318.02,-490.83 -318.02,-813.98zm4044.63 1100.39l-978.6 0 0 -2174.43 214.05 0 0 1963.43 764.55 0 0 211zm1809.19 0l-978.61 0 0 -2174.43 214.05 0 0 1963.43 764.56 0 0 211zm834.6 -1096.86c0,265.07 86.16,486.81 258.47,666.2 172.2,178.9 384.78,268.6 637.64,268.6 246.63,0 455.19,-90.8 625.43,-271.65 170.24,-181.47 255.3,-404.19 255.3,-669.25 0,-246.75 -87.62,-459.83 -262.98,-638.12 -174.88,-179.03 -385.88,-268.12 -633.13,-268.12 -100.31,0 -197.21,17.33 -289.95,51.38 -93.24,34.17 -178.91,85.18 -257.87,151.45 -103.48,87.62 -185.12,194.64 -244.19,321.07 -59.19,126.43 -88.72,255.91 -88.72,388.44zm-223.2 -3.53c0,-151.45 29.04,-295.7 87.13,-433.35 58.58,-137.05 142.66,-259.94 253.35,-368.43 106.53,-104.59 223.69,-183.05 351.7,-236.02 127.9,-52.47 266.53,-79.08 415.9,-79.08 151.94,0 293.01,26.61 423.1,80.06 129.97,53.08 248.71,132.53 356.22,238.09 110.57,108.49 193.68,229.79 249.2,363.91 55.65,134.61 83.6,279.34 83.6,434.82 0,153.88 -23.92,295.57 -71.88,424.56 -47.35,128.87 -119.23,246.14 -214.54,351.71 -110.57,121.3 -235.53,212.46 -375.14,274.21 -139.12,61.63 -290.57,92.75 -453.61,92.75 -312.41,0 -574.91,-109.59 -787.01,-329.25 -211.97,-219.18 -318.02,-490.83 -318.02,-813.98zm4206.7 -1074.04l437.86 1782.94 542.82 -1782.94 209.05 0 -672.91 2174.43 -177.32 0 -436.28 -1774.28 -438.35 1774.28 -177.44 0 -675.84 -2174.43 211.49 0 540.38 1782.94 440.91 -1782.94 195.63 0zm2108.41 975.55l914.42 0 0 214.18 -914.42 0 0 773.7 914.42 0 0 211 -1128.47 0 0 -2174.43 1128.47 0 0 214.17 -914.42 0 0 761.38zm2050.33 -761.38l0 1960.26 -211.12 0 0 -2174.43 584.67 0c128.5,0 231.87,9.76 309.85,29.04 78.59,19.41 149.37,51.5 213.07,96.41 86.65,60.65 154.99,141.68 205.39,243.1 50.52,101.9 75.54,209.53 75.54,322.66 0,168.16 -50.03,312.9 -150.47,434.2 -99.83,121.92 -225.28,187.57 -375.63,198.8l526.1 850.22 -253.83 0 -645.82 -1049.02 206.36 0c137.17,0 248.84,-40.27 334.87,-120.69 86.16,-80.54 128.99,-184.03 128.99,-310.46 0,-76.52 -13.18,-145.83 -39.78,-208.44 -25.99,-62.72 -65.17,-117.76 -116.67,-164.14 -42.83,-38.8 -94.33,-66.75 -154.49,-83.1 -60.66,-16.36 -167.68,-24.41 -321.57,-24.41l-315.46 0zm1952.94 1339.47l204.9 0c4.02,134.48 42.22,241.02 114.59,321.07 72.49,79.57 167.8,119.23 285.44,119.23 126.92,0 227.35,-39.66 301.8,-118.74 74.44,-78.96 111.66,-186.47 111.66,-321.56 0,-197.34 -152.42,-346.1 -457.76,-446.53 -23.92,-8.18 -41.73,-13.79 -54.06,-17.82 -159.01,-55.04 -273.12,-124.35 -343.53,-208.44 -69.81,-84.2 -104.95,-193.79 -104.95,-329.37 0,-173.29 54.06,-314.98 162.06,-425.54 108,-110.57 247.25,-165.6 418.46,-165.6 163.16,0 292.52,50.4 388.44,150.83 95.31,100.44 148.76,242.12 159.5,424.08l-201.84 0c-10.74,-118.26 -46.38,-209.54 -106.05,-273.73 -59.56,-64.19 -140.1,-96.29 -240.54,-96.29 -107.51,0 -195.25,35.15 -263.47,104.95 -68.34,70.3 -102.51,159.51 -102.51,268.12 0,56.62 10.25,105.44 30.63,147.3 20.38,41.24 52.96,78.46 97.87,112.63 45.77,33.69 133.51,71.4 262.99,113.13 74.32,24.04 131.43,43.32 170.24,58.09 141.2,55.04 243.1,124.97 305.33,210.02 62.12,85.19 93.24,196.73 93.24,334.87 0,211 -57.6,380.75 -172.8,509.75 -114.72,128.99 -267.63,193.18 -457.76,193.18 -177.32,0 -321.08,-60.65 -431.64,-182.45 -110.69,-121.91 -167.19,-282.39 -170.24,-481.18z"/>
    </g>
    <g>
     <path class="fil0" style="mask:url(#id6)" d="M2592.16 29194.46l521.18 0c607.32,0 1011.37,378.71 1011.37,947.25 0,568.31 -401.29,947.36 -1011.37,947.36l-521.18 0 0 -1894.61zm501.59 1635.46l0 0c493.3,0 724.5,-284.1 724.5,-688.21 0,-404 -231.2,-688.21 -724.5,-688.21l-206.31 0 0 1376.42 206.31 0z"/>
     <polygon class="fil0" style="mask:url(#id8)" points="5468.38,29194.35 6671.96,29194.35 6671.96,29453.5 5763.66,29453.5 5763.66,30189.07 6569,30189.07 6569,30442.74 5763.66,30442.74 5763.66,30829.86 6711.08,30829.86 6711.08,31089.18 5468.38,31089.18 "/>
     <path class="fil0" style="mask:url(#id10)" d="M7979.56 30141.71c0,-565.49 434.71,-969.6 972.59,-969.6 339.87,0 590.61,125.26 757.64,376.17l-225.56 161.55c-105.95,-164.54 -284.21,-273.04 -532.08,-273.04 -392.87,0 -671.66,300.92 -671.66,704.92 0,403.99 278.79,707.74 671.66,707.74 261.86,0 437.47,-117.13 559.91,-298.1l225.84 158.67c-164.48,250.97 -431.88,404 -785.75,404 -537.88,0 -972.59,-406.82 -972.59,-972.31z"/>
     <path class="fil0" style="mask:url(#id12)" d="M10947.69 30141.71c0,-565.49 434.75,-972.31 978.06,-972.31 540.54,0 975.25,406.82 975.25,972.31 0,565.49 -434.71,972.31 -975.25,972.31 -543.31,0 -978.06,-406.82 -978.06,-972.31zm1652.38 0l0 0c0,-404 -278.56,-707.74 -674.32,-707.74 -395.64,0 -677.2,303.74 -677.2,707.74 0,403.99 281.56,707.74 677.2,707.74 395.76,0 674.32,-303.75 674.32,-707.74z"/>
     <path class="fil0" style="mask:url(#id14)" d="M15560.07 31089.07l-339.93 0 -339.93 -498.6c-53.17,5.53 -105.89,10.89 -158.9,10.89l-178.43 0 0 487.71 -295.39 0 0 -1894.61 473.82 0c523.89,0 816.46,273.04 816.46,707.57 0,292.46 -131.07,493.24 -379.21,601.96l401.51 585.08zm-849.93 -741.21l0 0c376.22,0 526.71,-164.32 526.71,-445.83 0,-284.21 -156.13,-448.53 -526.71,-448.53l-167.26 0 0 894.36 167.26 0z"/>
     <path class="fil0" style="mask:url(#id16)" d="M17558.53 29174.93l33.42 0 830.18 1914.02 -306.46 0 -108.55 -267.39 -866.64 0 -108.77 267.39 -284.16 0 810.98 -1914.02zm342.64 1398.66l0 0 -236.8 -590.78c-47.36,-111.31 -94.77,-281.39 -94.77,-281.39 0,0 -44.65,170.08 -92.01,281.39l-236.74 590.78 660.32 0z"/>
     <polygon class="fil0" style="mask:url(#id18)" points="19894.16,29453.5 19331.16,29453.5 19331.16,29194.35 20749.4,29194.35 20749.4,29453.5 20186.73,29453.5 20186.73,31088.95 19894.16,31088.95 "/>
     <polygon class="fil0" style="mask:url(#id20)" points="22346.69,29194.29 22346.69,31089.07 22054.13,31089.07 22054.13,29194.29 "/>
     <path class="fil0" style="mask:url(#id22)" d="M23639.96 29194.35l314.87 0 426.34 1016.96c55.61,125.48 114.31,337.22 114.31,337.22 0,0 52.89,-209.14 111.43,-337.22l420.64 -1016.96 287.04 0 -808.05 1914.25 -36.12 0 -830.46 -1914.25z"/>
     <polygon class="fil0" style="mask:url(#id24)" points="26599.79,29194.35 27803.53,29194.35 27803.53,29453.5 26895.18,29453.5 26895.18,30189.07 27700.51,30189.07 27700.51,30442.74 26895.18,30442.74 26895.18,30829.86 27842.48,30829.86 27842.48,31089.18 26599.79,31089.18 "/>
     <path class="fil0" style="mask:url(#id26)" d="M30677.38 29194.35l314.87 0 426.29 1016.96c55.6,125.48 114.14,337.22 114.14,337.22 0,0 53.06,-209.14 111.42,-337.22l420.82 -1016.96 287.04 0 -807.82 1914.25 -36.58 0 -830.18 -1914.25z"/>
     <polygon class="fil0" style="mask:url(#id28)" points="33637.21,29194.35 34840.95,29194.35 34840.95,29453.5 33932.6,29453.5 33932.6,30189.07 34737.88,30189.07 34737.88,30442.74 33932.6,30442.74 33932.6,30829.86 34879.84,30829.86 34879.84,31089.18 33637.21,31089.18 "/>
     <path class="fil0" style="mask:url(#id30)" d="M36680.41 29982.81c-75.25,-80.78 -178.55,-211.62 -178.55,-211.62 0,0 19.65,155.96 19.65,273.03l0 1044.85 -273.04 0 0 -1914.36 39.12 0 1044.84 1123.19c72.37,77.84 175.44,211.68 175.44,211.68 0,0 -19.47,-167.26 -19.47,-273.26l0 -1041.86 273.03 0 0 1914.14 -36.18 0 -1044.84 -1125.79z"/>
     <polygon class="fil0" style="mask:url(#id32)" points="39194.47,29194.35 40398.21,29194.35 40398.21,29453.5 39489.86,29453.5 39489.86,30189.07 40295.14,30189.07 40295.14,30442.74 39489.86,30442.74 39489.86,30829.86 40437.1,30829.86 40437.1,31089.18 39194.47,31089.18 "/>
     <polygon class="fil0" style="mask:url(#id34)" points="41805.78,29194.35 43009.53,29194.35 43009.53,29453.5 42101.17,29453.5 42101.17,30189.07 42906.45,30189.07 42906.45,30442.74 42101.17,30442.74 42101.17,30829.86 43048.42,30829.86 43048.42,31089.18 41805.78,31089.18 "/>
     <path class="fil0" style="mask:url(#id36)" d="M45729.51 31089.07l-339.93 0 -339.7 -498.6c-53.12,5.53 -106.01,10.89 -158.9,10.89l-178.32 0 0 487.71 -295.39 0 0 -1894.61 473.71 0c523.72,0 816.34,273.04 816.34,707.57 0,292.46 -131.01,493.24 -378.99,601.96l401.18 585.08zm-849.82 -741.21l0 0c376.28,0 526.82,-164.32 526.82,-445.83 0,-284.21 -156.13,-448.53 -526.82,-448.53l-167.03 0 0 894.36 167.03 0z"/>
     <path class="fil0" style="mask:url(#id38)" d="M46909.15 30721.26l242.32 -133.62c89.25,147.5 203.44,264.69 434.82,264.69 192.15,0 328.64,-103.19 328.64,-259.38 0,-164.2 -111.43,-236.74 -317.52,-328.52l-125.43 -55.72c-275.8,-122.71 -443,-262.14 -443,-554.59 0,-281.45 217.38,-481.95 532.25,-481.95 250.62,0 420.59,94.6 534.95,298.15l-231.44 141.97c-72.3,-125.26 -155.96,-183.85 -303.51,-183.85 -150.55,0 -245.21,92.06 -245.21,220.09 0,142.19 80.66,206.03 273.04,289.69l122.49 55.82c323.16,142.14 496.28,292.46 496.28,596.43 0,331.46 -259.43,523.66 -616.07,523.66 -359.4,0 -576.83,-178.2 -682.61,-392.87z"/>
    </g>
   </g>
   <rect class="fil1" width="50800" height="33020"/>
  </g>
 </g>
</svg>
